<?xml version="1.0" encoding="UTF-8"?>
<svg id="Layer_1" xmlns="http://www.w3.org/2000/svg" version="1.1" viewBox="0 0 540 540">
  <!-- Generator: Adobe Illustrator 29.0.0, SVG Export Plug-In . SVG Version: 2.1.0 Build 186)  -->
  <defs>
    <style>
      .st0 {
        fill: #04070e;
      }

      .st1 {
        fill: #c2b7ae;
      }
    </style>
  </defs>
  <path class="st1" d="M540,270c0,149.1-120.9,270-270,270S0,419.1,0,270,120.9,0,270,0s270,120.9,270,270Z"/>
  <path class="st0" d="M489.8,262.5c0,29.8-10.8,50.1-32.5,61-6.3,3.2-26.2,7.5-59.6,12.9-21.7,3.6-32.5,12-32.5,25v54.9c0,2.3.7,9.3,2,21l2,21.7c0,6.8-1.6,17.9-4.8,33.2-8.6,1.8-18.5,3.8-29.8,6.1-3.6-13.5-5.4-22.8-5.4-27.8s.6-5.6,1.7-10.2c1.1-4.5,1.7-7.9,1.7-10.2s-2.8-12-8.4-26.4h-10.5c-1.4,2.3-1.9,5.2-1.4,8.8,1.8,7.7,2.5,14.2,2,19.6-7.7,5.4-18.3,12.6-31.8,21.7-3.2-.9-4.3-1.4-3.4-1.4v-48.1c-.9-2.2-3.1-3.1-6.8-2.7h-8.1l-8.1,63.6c-6.3.5-14,.5-23,0-3.2-14.9-8.8-37-16.9-66.4h-5.4c-5,15.8-7.7,24.4-8.1,25.8,0,1.8.6,5.3,1.7,10.5,1.1,5.2,1.7,8.7,1.7,10.5s-.4,4.7-1.4,10.2l-2,16.2c-.9.9-2,1.4-3.4,1.4-13.5,0-22.6-3.4-27.1-10.1-4.5-6.8-6.3-16.3-5.4-28.5l5.4-81.2c0-1.4.4-3.2,1.4-5.4.9-2.3,1.4-3.8,1.4-4.7,0-3.6-3.8-10.8-11.5-21.7-1.3-.4-8.4-2-21-4.8-7.7-1.8-22.8-5-45.4-9.5-31.2-5.9-46.7-30.9-46.7-75.2,0-65.9,27.1-120.8,81.3-164.6,2.2,12.2,6.1,28.4,11.5,48.8,4.1.9,12.9,2.9,26.4,6.1,2.7.9,16.5,5.9,41.3,14.9-12.7-7.7-29.1-20.1-49.4-37.2-7.7-9-11.5-24.1-11.5-45.4s8.6-10.8,25.8-17.6c15.3-6.3,26.9-9.9,34.5-10.8,24.4-3.1,43.1-4.8,56.2-4.8,56.4,0,102,14.5,136.8,43.4-11.3,13.1-30.7,27.1-58.2,42,10.8.4,26.6-3.8,47.4-12.9,20.8-9,29.6-13.5,26.4-13.5,3.6,0,10.8,7.2,21.7,21.7,8.1,10.8,14.7,20.6,19.6,29.1,14.4,25.8,24.1,53.5,29.1,83.3,0,10.4.2,17.9.7,22.3v5.4h0ZM230.4,274.7c0-19.4-8.5-37.8-25.4-55.2-16.9-17.4-35.1-26.1-54.5-26.1s-32.3,7.3-45.4,21.8c-13.1,14.5-19.6,30.7-19.6,48.4s7.4,25.5,22.3,30c9.5,2.7,22.8,4.3,40,4.8h37.2c30.2.5,45.4-7.5,45.4-23.7h0ZM304.2,358.7v-21c-3.1-5.9-6.3-12-9.5-18.3-2.7-9-7.7-21.7-14.9-37.9l-7.5,79.2c0,6.3-1.4,9.5-4.1,9.5s-3.1-.4-4.1-1.3c-3.2-47.9-4.8-68.6-4.8-62.3v-23.7c-.9-1.4-2-2-3.4-2-15.4,15.8-23,41.3-23,76.5s1.8,31.4,5.4,35.9c3.6-.9,7.7-2.5,12.2-4.7,1.8-.9,7-1.4,15.6-1.4s19,2.7,31.1,8.1c4.5,0,6.8-12.2,6.8-36.6h0ZM457.2,264.4c0-18.2-6.8-34.4-20.3-48.7-13.5-14.3-29.1-21.5-46.7-21.5s-36.7,8.7-53.2,26.1-24.7,35.6-24.7,54.5,7.7,23.7,23,23.7h77.9c29.3-.4,44-11.8,44-34.1h0Z"/>
</svg>