<?xml version="1.0" encoding="UTF-8"?>
<svg id="Layer_1" xmlns="http://www.w3.org/2000/svg" version="1.1" viewBox="0 0 540 540">
  <!-- Generator: Adobe Illustrator 29.0.0, SVG Export Plug-In . SVG Version: 2.1.0 Build 186)  -->
  <defs>
    <style>
      .st0 {
        fill: #04070e;
      }

      .st1 {
        fill: #bcd9e8;
      }
    </style>
  </defs>
  <circle class="st1" cx="270" cy="270" r="270"/>
  <path class="st0" d="M364.4,452.1c-25.9,26.3-57.7,39.5-95.5,39.5s-76.1-14.5-101-43.6c-23.5-27.7-35.3-63-35.3-105.9s20.1-98.7,60.2-157.8c32.8-48.4,71.3-90.9,115.6-127.3-6.5,29.5-9.7,50.5-9.7,63,0,28.6,9,56.5,27,83.7,22.1,32.3,39,56.3,50.5,72,18,27.2,27,53.8,27,79.6,0,38.3-12.9,70.6-38.8,96.9h0ZM363.7,304.3c-6.9-15.5-15-25.7-24.2-30.8,1.4,2.8,2.1,6.7,2.1,11.8,0,9.7-2.8,23.5-8.3,41.5l-9,27.7c0,16.1,8.1,24.2,24.2,24.2s25.6-11.3,25.6-33.9-3.5-25-10.4-40.5h0Z"/>
</svg>