<?xml version="1.0" encoding="UTF-8"?>
<svg id="Layer_1" xmlns="http://www.w3.org/2000/svg" version="1.1" viewBox="0 0 540 540">
  <!-- Generator: Adobe Illustrator 29.0.0, SVG Export Plug-In . SVG Version: 2.1.0 Build 186)  -->
  <defs>
    <style>
      .st0 {
        fill: #04070e;
      }

      .st1 {
        fill: #9cc497;
      }
    </style>
  </defs>
  <path class="st1" d="M540.6,270c0,149.1-120.9,270-270,270S.6,419.1.6,270,121.4,0,270.5,0s270,120.9,270,270Z"/>
  <path class="st0" d="M506.3,303.6c0,9-3.5,17.1-10.5,24.3-7,7.2-15,10.8-24,10.8-14.4,0-25-6.8-31.7-20.2l-31.7-1.4c-6.8,0-20,2.9-39.8,8.8-21.1,5.8-33.3,10.6-36.4,14.2-5,5.4-9,18-12.1,37.8-2.7,16.2-4,28.1-4,35.8,0,12.1,1.9,21,5.7,26.6,3.8,5.6,11.7,10.4,23.6,14.2,11.9,3.8,19.2,6,21.9,6.4,1.8,0,4.7-.2,8.8-.7h8.1c5.8,0,11.9.9,18.2,2.7,9,2.7,12.8,6.3,11.5,10.8-6.3-.9-17.3.5-33,4l18.9,9.4c0,5.4-7.6,8.1-22.9,8.1s-9.6-.9-16.5-2.7c-7-1.8-11.6-2.7-13.8-2.7h-8.8c-.4,4.5-1.8,11.2-4,20.2-7.7-.5-16.6-5-27-13.5-10.4-8.5-16.9-12.8-19.5-12.8s-6.5,4.3-11.5,12.8c-5,8.5-7.4,14.4-7.4,17.5-5.8-3.1-10.8-9-14.9-17.5-1.8-5.9-3.8-11.7-6.1-17.5-4.5.5-12.8,9.9-24.9,28.3h-3.4c-.9-1.4-4.3-10.8-10.1-28.3-13.9-4.5-27-6.7-39.1-6.7s-14.8,1.4-27,4l-18.9-1.3c2.7-2.7,10.6-7.9,23.6-15.5,15.3-9,27-13.5,35.1-13.5s3.1.2,5.4.7c2.2.5,4.1.7,5.4.7,3.1,0,8.2-1.7,15.2-5.1,7-3.4,11-6.4,12.1-9.1,1.1-2.7,1.7-9.7,1.7-20.9,0-25.6-6.8-44.7-20.2-57.3-11.7-11.2-31-19.3-58-24.3-7.2,25.6-27.4,38.5-60.7,38.5s-21.6-6.5-32.4-19.6c-10.8-13-16.2-25-16.2-35.8,0-16.6,7-30.4,20.9-41.2-11.2-11.7-16.9-23.6-16.9-35.7s3.5-21.1,10.5-29.7c7-8.5,16.1-13.5,27.3-14.8-.9-14.4,3.8-24.3,14.2-29.7-4.9-4.9-7.4-13.7-7.4-26.3s4.9-27.2,14.8-37.1c9.9-9.9,22.2-14.8,37.1-14.8s29.5,5.6,39.8,16.9c13.1-44.5,41.2-66.8,84.3-66.8s42.3,9,59.4,27c6.3,6.7,9.4,10.3,9.4,10.8-5.4,0-2.7-1,8.1-3,10.8-2,18.6-3,23.6-3,17.5,0,33,6.5,46.5,19.6,11.7,11.7,19.8,26.5,24.3,44.5,3.1.4,8.1,1.8,14.8,4,9.9,5,14.8,13.5,14.8,25.6s-1.8,6.5-5.4,12.8c28.8,16.2,43.2,38.7,43.2,67.5s-3.1,19.4-9.4,33.7c11.7,6.7,17.5,16.6,17.5,29.7h0ZM228.4,333.3v-8.8c0-10.3-5.1-19.8-15.2-28.3-10.1-8.5-20.4-12.8-30.7-12.8s-24.3,2.9-35.1,8.8c23.8-1.3,50.8,12.4,80.9,41.1ZM216.3,249.6c-6.8-7.7-12.6-15.5-17.6-23.6-18.9,4.9-28.3,10.6-28.3,16.9,5.4-.4,13.3.6,23.6,3.1,10.3,2.5,17.8,3.7,22.3,3.7h0ZM257.4,228.7v-29.7c-10.8-1.8-17.3-2.7-19.6-2.7v10.1l19.6,22.3h0ZM345.1,209.9c-5.4-2.2-15.5-6.8-30.4-13.5v58c21.1-12.1,31.2-27,30.4-44.5h0ZM382.2,289.5l-14.8-18.2c-9,6.3-18.1,12.7-27.3,19.2-9.2,6.5-17.2,13.8-23.9,21.9,20.2-10.8,42.3-18.4,66.1-22.9h0Z"/>
</svg>