<?xml version="1.0" encoding="UTF-8"?>
<svg id="Layer_1" xmlns="http://www.w3.org/2000/svg" viewBox="0 0 9.61 19.3">
  <defs>
    <style>
      .cls-1 {
        fill: #eaeaea;
      }
    </style>
  </defs>
  <path class="cls-1" d="M9.61,9.44v.49c-1.57.8-2.72,1.99-3.33,3.65-.55,1.5-.91,3.05-1.13,4.63-.05.37,0,.78-.29,1.09h-.12c-.08-.18-.21-.35-.23-.54-.13-1.36-.46-2.68-.8-4-.55-2.15-1.7-3.82-3.72-4.83v-.55c.02-.11.04-.22.05-.33.07-1.22.12-2.45.2-3.67.02-.31.11-.62.17-.94.02,0,.05.01.07.02.23,1.47.46,2.94.7,4.45.23-.09.37-.16.52-.19.2-.05.3-.15.31-.37.04-.5.11-1.01.15-1.51.09-1.4.16-2.81.25-4.22.02-.25.09-.49.14-.74.04,0,.07,0,.11,0,.03.1.09.2.1.3.05.5.09,1.01.13,1.51.09,1.22.16,2.44.26,3.66.03.31.12.62.18.94.21-.03.38-.04.53-.09.07-.02.17-.11.18-.18.09-.83.2-1.67.25-2.51.08-1.51.12-3.02.2-4.52.02-.35.05-.71.34-1.01.12.37.23.73.25,1.11.14,2.17.25,4.35.38,6.52.04.61.08.64.69.66.02,0,.04,0,.08-.02.02-.07.06-.14.06-.22.11-.99.23-1.99.31-2.98.07-.83.08-1.66.14-2.49.02-.23.09-.46.13-.69.04,0,.08,0,.11,0,.04.14.1.27.11.41.09,1.21.16,2.42.25,3.64.06.84.15,1.67.24,2.51,0,.08.1.19.17.23.17.09.37.14.64.25.24-1.51.47-2.99.7-4.46.11.17.18.35.19.54.09,1.33.17,2.67.25,4,0,.15.04.3.05.45h0Z"/>
</svg>