<?xml version="1.0" encoding="UTF-8"?>
<svg id="Layer_1" xmlns="http://www.w3.org/2000/svg" version="1.1" viewBox="0 0 540 540">
  <!-- Generator: Adobe Illustrator 29.0.0, SVG Export Plug-In . SVG Version: 2.1.0 Build 186)  -->
  <defs>
    <style>
      .st0 {
        fill: #04070e;
      }

      .st1 {
        fill: #f8a076;
      }
    </style>
  </defs>
  <circle class="st1" cx="270" cy="270" r="270"/>
  <path class="st0" d="M496.6,359.7c-20.2,48.1-60.3,72.2-120.3,72.2s-22.9,1.4-35.8,4.1c-19.2,4.1-28.9,9.9-28.9,17.2s1.6,4.9,4.8,7.9c3.2,3,6,4.5,8.2,4.5-11.5,0-3.7.4,23.4,1,27,.7,44,1,50.9,1-39.9,23.4-106.5,34.1-200,32.3-30.7-.5-57.1-14-79.1-40.5-21.6-25.2-32.3-53.4-32.3-84.6s11.1-61.1,33.3-84.2c22.2-23.1,49.8-34.7,82.8-34.7s17.1,1.6,29.2,4.8c12.1,3.2,20.3,4.8,24.4,4.8,17,0,38-7,63.2-21,25.2-14,37.1-21,35.8-21-4.6,48.1-20.6,80.4-48.1,96.9-19.7,11.5-29.5,22.7-29.5,33.7s4.1,12.4,12.4,16.5c6.4,3.2,13.5,4.8,21.3,4.8,11.9,0,23.6-7.3,35.1-22,11.4-14.7,16.5-28,15.1-39.9-1.4-13.7-.5-30.2,2.8-49.5.9-5.5,4.2-12.3,10-20.3,5.7-8,10.9-12.9,15.5-14.8,0,4.1-1.5,11-4.5,20.6s-4.5,16.7-4.5,21.3c0,10.1,2.7,17.9,8.2,23.4,8.2-3.2,15.6-13.5,22-30.9,5.5-13.3,8.7-26.1,9.6-38.5-19.3-.9-37.7-9.6-55.3-26.1-17.6-16.5-26.5-34.4-26.5-53.6s.4-6.4,1.4-9.6c2.7,4.1,6.9,10.6,12.4,19.2,7.8,11.4,13.8,17.2,17.9,17.2s8.2-5.7,8.2-17.2-3.9-27.9-11.7-39.9c-8.7-14.2-19.9-21.3-33.7-21.3s-16,3.4-28.9,10.3c-12.9,6.9-24.5,10.3-35.1,10.3s-17.4-4.1-42.6-12.4c44.4-7.3,66.7-14,66.7-19.9,0-15.6-30.5-26.1-91.4-31.6-6-.5-17-1.4-33-2.8,1.8-2.3,14.9-4.8,39.2-7.6,20.6-2.3,35.1-3.4,43.3-3.4,109.1,0,178.3,53,207.6,158.8,5-4.2,7.6-11.2,7.6-20.9s-3.7-28.4-11-47.4c-2.8-7.4-7.1-18.6-13.1-33.4,37.6,47.9,56.4,93.3,56.4,136.1s-5.3,43.1-15.8,61.5c-6.9,12.4-19.7,28.3-38.5,47.7-18.8,19.3-31.6,34.3-38.5,44.9,25.2-6.9,41.7-12.1,49.5-15.8,17.4-7.8,33.2-19.5,47.4-35.1,0,6-2.5,14.9-7.6,26.8h0ZM196.9,89.6c0,8.2-4.6,13.5-13.7,15.8l-17.9,2.8c-6.4,3.2-15.8,15.8-28.2,37.8-1.4-6.9-3.4-16.5-6.2-28.9-4.1.5-11,4.1-20.6,11-4.1,3.2-10.8,8-19.9,14.4,2.8-16.5,11.9-33.2,27.5-50.2,16.5-18.8,32.5-28.2,48.1-28.2s30.9,8.5,30.9,25.4h0ZM316.5,152.8c0,7.8-4.2,14.3-12.7,19.6s-16.8,7.9-25.1,7.9-20.9-6.2-29.6-18.6c-10.6-15.1-21.3-25-32.3-29.6,2.3-2.3,5-3.4,8.3-3.4s11.1,3.2,21,9.6c9.9,6.4,16.1,9.6,18.9,9.6s6.1-3.2,11.3-9.6c5.3-6.4,11.1-9.6,17.5-9.6,15.1,0,22.7,8,22.7,24.1h0Z"/>
</svg>