<?xml version="1.0" encoding="UTF-8"?>
<svg id="Layer_1" xmlns="http://www.w3.org/2000/svg" version="1.1" viewBox="0 0 540 540">
  <!-- Generator: Adobe Illustrator 29.0.0, SVG Export Plug-In . SVG Version: 2.1.0 Build 186)  -->
  <defs>
    <style>
      .st0 {
        fill: #231f20;
      }

      .st1 {
        fill: #f8f6da;
      }
    </style>
  </defs>
  <circle class="st1" cx="270" cy="270" r="270"/>
  <g>
    <path class="st0" d="M268.6,169.9c-27.1,0-50.5,9.7-70.4,29.1-19.8,19.4-29.7,42.6-29.7,69.7s9.8,50.9,29.4,70c19.6,19.1,43.2,28.7,70.7,28.7s52.3-9.3,71.4-28c19.1-18.6,28.7-42.2,28.7-70.7s-9.9-49.7-29.8-69.3c-19.8-19.6-43.3-29.4-70.4-29.4h0Z"/>
    <path class="st0" d="M493.3,249.7c-15.9-23.4-30.1-35-42.7-35s-17.7,4.9-22.4,14.7c-4.7,9.8-9.8,14.7-15.4,14.7-7.9,0-14.2-2.8-18.9-8.4-1.9-1.9-5.6-7.9-11.2-18.2l23.8-16.8c8.4-5.6,12.6-11.7,12.6-18.2s-1.2-9.6-3.5-17.5c-2.3-7.9-3.5-13.5-3.5-16.8,0-7,9.3-13.3,28-18.9,20.5-5.6,35.9-9.8,46.2-12.6-47.2-8.4-78.2-12.6-93.1-12.6-23.8,0-36.6,3.3-38.5,9.8-.5.9-.1,5.2,1.1,12.6,1.2,7.5,1.8,11.9,1.8,13.3,0,14-6.8,21-20.3,21s-16.1-4.4-28.7-13.3c5.6-18.7,6.1-33.4,1.4-44.1-1.4-3.7-7-10-16.8-18.9-7.9-7.5-11.9-14.5-11.9-21,0-12.6,10-32.4,30.1-59.5-7.5,3.3-23.6,14.2-48.3,32.9-30.8,23.3-46.2,39.9-46.2,49.7s4.3,6.9,13,12.2c8.6,5.4,12.9,13.2,12.9,23.5s-3.3,18.2-9.8,25.2c-5.8,6.2-12.9,9.6-21.3,10.4-1.1,0-2.3,0-3.4,0l-10.4-18.7c-7-12.1-15.9-18.2-26.6-18.2s-7.7,1.4-13.3,4.2c-5.6,2.8-9.3,4.2-11.2,4.2-10.8,0-20.1-11.7-28-35-6.5-19.1-9.6-32.2-9.1-39.2-8.6,46.7-13.7,76.4-15.5,89.3h0c-.4,3.3-.7,5.5-.7,6.6s0,1.8,0,2.8c0,3.6,0,7.4.6,9.9,0,0,0,0,0,.1,1.3,10.6,4.3,16.7,9.2,18.3.4.3,1.1.4,2.5.4,0,0,.2,0,.3,0,1.7,0,4.1-.4,7.2-1.1,0,0,0,0,0,0,4.1-.9,11.1-1.7,18.9-2.3,4.4,1.4,9.1,4.8,14.1,10.1,6.8,7.2,10.2,13.7,10.2,19.3s-4.4,16.6-13.3,30.1c-17.3-5.6-26.6-8.4-28-8.4-10.3,0-18.6,5.7-24.8,17.2-6.3,11.4-12.7,17.2-19.2,17.2s-19.6-3.3-33.6-9.8c-10.7-5.6-21.5-11.2-32.2-16.8,17.3,23.8,30.1,41.8,38.5,53.9,17.7,24.3,32.2,36.4,43.4,36.4s13.5-4.9,21-14.7c7.5-9.8,12.6-14.7,15.4-14.7,18.2,0,29.4,10.8,33.6,32.2-22.4,11.7-32.7,24.7-30.8,39.2,1.9,13.1,2.8,18.7,2.8,16.8,0,15.9-24.3,29.9-72.8,42,42.9,8.4,73.5,12.6,91.7,12.6s35.5-7.7,35-23.1v-18.9c0-12.1,9.3-18.2,28-18.2s15.6,3.5,21.7,10.5c-5.6,11.7-8.4,21.5-8.4,29.4s5.4,18.2,16.1,26.6c10.7,8.4,16.1,15,16.1,19.6,0,8.4-3.7,20.3-11.2,35.7-6.6,13.5-13.1,24.5-19.6,32.9,7.5-5.6,21-15.4,40.6-29.4,36.9-26.1,55.3-45.5,55.3-58.1s-4.3-6.3-13-11.9c-8.6-5.6-13-13-13-22.4,0-18.7,10.7-29.6,32.2-32.9,10.7,24.8,22.9,37.1,36.4,37.1s7.1-1.4,13-4.2c5.8-2.8,9.7-4.2,11.5-4.2,13.5,0,26.4,23.8,38.5,71.4,9.3-41.5,14-72.4,14-92.4s-2.9-31.5-8.6-31.5-5.7.7-11.5,2.1c-5.7,1.4-10.2,2.1-13.6,2.1-5.3,0-11.7-3.5-19.3-10.5-7.6-7-11.5-13.1-11.5-18.2s4.4-12.4,13.3-25.9c15.9,3.7,26.4,5.6,31.5,5.6,12.6,0,21-5.7,25.2-17.1,4.2-11.4,10-17.2,17.5-17.2s33.6,10.3,70,30.8c-18.7-26.6-32.5-46.4-41.3-59.5h0ZM348.1,347.4c-21.2,20.8-47.7,31.2-79.5,31.2s-56.1-10.9-78.8-32.6c-22.6-21.7-33.7-47.5-33.2-77.4.4-30.3,11.7-56.4,33.6-78.1,21.9-21.7,48.1-32.6,78.4-32.6s55.8,11,77.7,32.9c21.9,21.9,32.9,47.9,32.9,77.7.5,31.8-9.9,58-31.2,78.8h0Z"/>
  </g>
</svg>